<svg width="62" height="20" viewBox="0 0 62 20" fill="none" xmlns="http://www.w3.org/2000/svg">
<g clip-path="url(#clip0_1314_5342)">
<path d="M59.1633 7.3659H61.9927C61.6348 4.60725 59.6236 3.15723 56.8282 3.15723C53.9989 3.15723 52.107 4.66033 52.107 7.24212C52.107 10.1776 54.5443 10.8318 55.8396 11.0971C57.51 11.4331 59.1463 11.4685 59.1463 12.9538C59.1463 13.9618 58.3281 14.4569 57.1691 14.4569C55.7374 14.4569 54.783 13.7142 54.5443 12.3704H51.749C51.9194 15.2704 53.9478 16.8266 56.9306 16.8266C59.6917 16.8266 61.9586 15.518 61.9586 12.6886C61.9586 9.64704 59.3508 9.09889 57.5271 8.81593C56.2828 8.62144 54.9193 8.44458 54.9193 7.08294C54.9193 6.12805 55.6181 5.54452 56.7941 5.54452C58.1577 5.54452 58.9758 6.34032 59.1633 7.3659Z" fill="#403F41"/>
<path d="M50.1985 3.59961H47.5225V16.4201H50.1985V3.59961Z" fill="#403F41"/>
<path d="M39.4431 11.9458H42.9373C42.3918 13.3252 41.1646 13.9793 39.7499 13.9793C37.2615 13.9793 36.1025 11.9811 36.1025 10.0006C36.1025 8.00233 37.1933 5.96877 39.7329 5.96877C41.284 5.96877 42.4429 6.71147 42.8861 8.03772L45.7666 8.03773C45.2723 5.04928 42.7498 3.33398 39.767 3.33398C36.0854 3.33398 33.3242 5.93338 33.3242 10.036C33.3242 14.1916 36.324 16.6496 39.7499 16.6496C43.1247 16.6496 45.7666 14.3684 45.7666 10.7964V9.75301H39.4431V11.9458Z" fill="#403F41"/>
<path d="M27.2056 3.33398C24.1377 3.33398 21.8707 5.33216 21.8878 8.65665H24.649C24.6149 7.20662 25.5012 5.88038 27.0693 5.88038C28.4329 5.88038 29.2339 6.87066 29.2339 8.00234C29.2339 9.1341 28.4328 9.77072 26.95 10.4604C24.9217 11.3976 23.4729 11.9988 21.99 12.5294V16.4197H32.319V13.8025H25.2281C25.2281 13.8025 25.2517 13.7949 25.2633 13.7912C26.4694 13.4121 27.3754 13.0002 28.4499 12.5117C30.7509 11.4507 32.0633 10.1244 32.0633 7.86093C32.0633 5.08458 30.0862 3.33398 27.2056 3.33398Z" fill="#403F41"/>
<path d="M14.6264 11.9108C11.1493 11.9285 10.5869 14.1035 10.3994 15.9426L10.3142 16.756H9.61534L9.53013 15.9426C9.34268 14.1035 8.76317 11.9285 5.40539 11.9108C4.84294 10.7083 4.60431 9.73567 4.60431 8.63931C4.60431 5.89842 6.76897 3.33425 9.97326 3.33425C13.1776 3.33425 15.3082 5.88065 15.3082 8.65707C15.3082 9.73567 15.2059 10.7083 14.6264 11.9108ZM9.93923 0.00976562C4.6555 0.00976562 0.326172 4.5014 0.326172 10.0009C0.326172 15.5182 4.6555 20.0097 9.93923 20.0097C15.2741 20.0097 19.5863 15.5182 19.5863 10.0009C19.5863 4.50141 15.2741 0.00976562 9.93923 0.00976562Z" fill="#29B24A"/>
</g>
<defs>
<clipPath id="clip0_1314_5342">
<rect width="61.6667" height="20" fill="white" transform="translate(0.333008)"/>
</clipPath>
</defs>
</svg>
