<svg width="44" height="44" viewBox="0 0 44 44" fill="none" xmlns="http://www.w3.org/2000/svg">
<g clip-path="url(#clip0_1314_86)">
<path d="M39.4257 4.316L25.8871 0.537766C23.3126 -0.180671 20.5913 -0.179296 18.0177 0.542149L4.55918 4.31386C-2.36978 6.4341 -1.00896 16.4181 6.24578 16.586H37.7457C45.0069 16.4158 46.3585 6.4274 39.4257 4.316ZM37.7457 13.1485H6.24578C2.98162 13.073 2.36837 8.57721 5.48678 7.62382L18.9453 3.85203C20.9134 3.3004 22.9943 3.29928 24.963 3.84868L38.5016 7.62692C41.6234 8.57859 41.011 13.0727 37.7457 13.1485ZM25.4333 37.125C24.484 37.125 23.7145 36.3555 23.7145 35.4063V21.5703C23.8053 19.2899 27.062 19.2916 27.152 21.5703V35.4063C27.152 36.3555 26.3825 37.125 25.4333 37.125ZM18.4723 37.125C17.5231 37.125 16.7536 36.3555 16.7536 35.4063V21.5703C16.8443 19.2899 20.1011 19.2916 20.1911 21.5703V35.4063C20.1911 36.3555 19.4216 37.125 18.4723 37.125ZM4.72237 37.211C3.77311 37.211 3.00362 36.4415 3.00362 35.4922V21.5703C3.09437 19.2899 6.35114 19.2916 6.44112 21.5703V35.4922C6.44112 36.4415 5.67163 37.211 4.72237 37.211ZM11.6833 37.125C10.734 37.125 9.96455 36.3555 9.96455 35.4063V21.5703C10.0553 19.2899 13.3121 19.2916 13.402 21.5703V35.4063C13.402 36.3555 12.6326 37.125 11.6833 37.125ZM29.3864 42.2813C29.3864 43.2305 28.6169 44 27.6676 44H1.71456C-0.56587 43.9093 -0.564151 40.6525 1.71456 40.5625H27.6676C28.6169 40.5625 29.3864 41.332 29.3864 42.2813ZM43.9957 35.3699C43.9957 36.8656 43.3888 38.2743 42.2867 39.3363C41.5079 40.0869 40.5553 40.5938 39.527 40.8176V42.2813C39.4362 44.5617 36.1795 44.56 36.0895 42.2813V40.6934C34.9434 40.4737 33.5995 40.1081 32.2749 39.5816C31.3928 39.2309 30.962 38.2316 31.3126 37.3495C31.6633 36.4673 32.6627 36.0369 33.5446 36.3872C35.4934 37.1619 37.5059 37.5103 38.3125 37.5103C39.5298 37.5103 40.5582 36.5302 40.5582 35.3699C40.5582 34.1897 39.3488 33.2296 37.8623 33.2296C36.0844 33.2296 34.5309 32.6967 33.3698 31.6884C29.8492 28.6919 31.7388 22.6942 36.1754 22.1295V20.4531C36.2661 18.1726 39.5229 18.1744 39.6128 20.4531V22.3336C40.474 22.5039 41.48 22.7821 42.6421 23.234C44.7345 24.145 43.5525 27.18 41.3961 26.4377C39.2842 25.6164 37.917 25.5111 36.9618 25.5111C35.8276 25.5111 34.9722 26.44 34.9722 27.6718C34.9722 28.94 36.1337 29.792 37.8623 29.792C41.2443 29.7921 43.9957 32.2943 43.9957 35.3699ZM21.9958 6.35942C20.8092 6.35942 19.8473 7.32132 19.8473 8.50786C19.9605 11.3577 24.0315 11.3569 24.1442 8.50786C24.1442 7.32132 23.1823 6.35942 21.9958 6.35942Z" fill="url(#paint0_linear_1314_86)"/>
</g>
<defs>
<linearGradient id="paint0_linear_1314_86" x1="22.0003" y1="0" x2="22.0003" y2="44" gradientUnits="userSpaceOnUse">
<stop stop-color="#FF8B4A"/>
<stop offset="1" stop-color="#FF6534"/>
</linearGradient>
<clipPath id="clip0_1314_86">
<rect width="44" height="44" fill="white"/>
</clipPath>
</defs>
</svg>
