<svg width="134" height="139" viewBox="0 0 134 139" fill="none" xmlns="http://www.w3.org/2000/svg">
<g clip-path="url(#clip0_1314_5298)">
<path d="M19.1 33.5002C18.2 34.7002 17.1 35.4002 15.8 35.6002C14.4 35.8002 13.2 35.5002 12 34.6002C10.8 33.7002 10.1 32.6002 9.90004 31.3002C9.70004 29.9002 10 28.7002 10.9 27.5002C11.5 26.7002 12.2 26.1002 13 25.7002L14.3 26.6002C13.4 26.9002 12.7 27.5002 12.1 28.3002C11.5 29.1002 11.3 30.0002 11.4 31.0002C11.5 32.0002 12.1 32.7002 12.9 33.4002C13.8 34.0002 14.7 34.3002 15.6 34.1002C16.6 33.9002 17.3 33.4002 18 32.6002C18.7 31.7002 19 30.8002 18.9 29.8002L20.2 30.7002C20 31.7002 19.7 32.6002 19.1 33.5002Z" fill="#1E1F25"/>
<path d="M23.3996 28.0004L22.2996 29.1004L15.5996 21.9004L16.6996 20.8004L21.9996 21.9004L21.2996 16.5004L22.3996 15.4004L29.0996 22.6004L27.9996 23.7004L22.9996 18.3004L23.4996 22.9004L22.7996 23.5004L18.2996 22.7004L23.3996 28.0004Z" fill="#1E1F25"/>
<path d="M38.0002 15.5C37.7002 16.8 36.9002 17.9 35.7002 18.6C34.5002 19.3 33.2002 19.5 31.9002 19.2C30.6002 18.8 29.6002 18 28.8002 16.8C28.1002 15.6 27.8002 14.3 28.1002 13C28.4002 11.7 29.2002 10.6 30.4002 9.90004C31.6002 9.20004 32.9002 9.00004 34.2002 9.30004C35.5002 9.60004 36.5002 10.4 37.3002 11.7C38.1002 13 38.3002 14.1 38.0002 15.5ZM32.3002 17.7C33.2002 17.9 34.1002 17.8 34.9002 17.3C35.7002 16.8 36.2002 16.1 36.5002 15.2C36.7002 14.3 36.5002 13.3 36.0002 12.5C35.5002 11.6 34.7002 11 33.8002 10.8C32.9002 10.5 32.0002 10.7 31.2002 11.2C30.4002 11.7 29.9002 12.4 29.7002 13.4C29.5002 14.3 29.7002 15.2 30.2002 16.1C30.7002 16.9 31.4002 17.4 32.3002 17.7Z" fill="#1E1F25"/>
<path d="M38.0996 7.4998L37.5996 6.1998L44.9996 3.2998L45.4996 4.5998L42.4996 5.7998L45.4996 13.5998L44.0996 14.1998L41.0996 6.3998L38.0996 7.4998Z" fill="#1E1F25"/>
<path d="M52.4004 11.4998L50.9004 11.7998L48.9004 2.1998L53.0004 1.3998C54.0004 1.1998 54.8004 1.2998 55.5004 1.6998C56.2004 2.0998 56.6004 2.6998 56.8004 3.4998C57.0004 4.2998 56.8004 5.0998 56.4004 5.6998C56.0004 6.3998 55.2004 6.7998 54.2004 6.9998L51.6004 7.4998L52.4004 11.4998ZM50.7004 3.2998L51.3004 6.1998L53.8004 5.6998C54.4004 5.5998 54.8004 5.3998 55.1004 4.9998C55.4004 4.6998 55.5004 4.2998 55.4004 3.7998C55.3004 3.2998 55.1004 2.9998 54.7004 2.7998C54.3004 2.5998 53.9004 2.5998 53.3004 2.6998L50.7004 3.2998Z" fill="#1E1F25"/>
<path d="M67.9004 9.8L60.8004 10.1L60.4004 0.3L67.4004 0L67.5004 1.4L62.0004 1.6L62.1004 4L66.5004 3.8L66.6004 5.2L62.2004 5.4L62.3004 8.5L67.9004 8.3V9.8Z" fill="#1E1F25"/>
<path d="M70.7002 1.5001L70.9002 0.100098L78.9002 1.1001L78.7002 2.5001L75.5002 2.1001L74.5002 10.4001L73.0002 10.2001L74.0002 1.9001L70.7002 1.5001Z" fill="#1E1F25"/>
<path d="M83.9 12.5L80 11.4L82.9 2L84.4 2.4L83.4 5.6L85.8 6.3C86.9 6.6 87.7 7.2 88.1 7.9C88.5 8.6 88.6 9.5 88.4 10.4C88.1 11.3 87.6 11.9 86.8 12.3C86 12.8 85 12.9 83.9 12.5ZM83 7L82 10.4L84.3 11.1C85 11.3 85.5 11.3 86 11.1C86.5 10.9 86.8 10.5 86.9 10C87.1 9.5 87 9 86.7 8.6C86.4 8.2 86 7.9 85.3 7.7L83 7Z" fill="#1E1F25"/>
<path d="M98.0004 19.0001L93.9004 16.5001L99.0004 8.1001L102.8 10.4001C103.6 10.9001 104 11.4001 104.3 12.0001C104.5 12.6001 104.4 13.3001 104 13.9001C103.7 14.3001 103.4 14.6001 103 14.8001C102.6 15.0001 102.2 15.0001 101.8 15.0001C102.3 15.4001 102.5 15.9001 102.6 16.5001C102.7 17.1001 102.6 17.7001 102.2 18.3001C101.8 19.0001 101.2 19.4001 100.4 19.5001C99.7004 19.7001 98.9004 19.5001 98.0004 19.0001ZM97.5004 13.5001L95.9004 16.1001L98.5004 17.7001C99.0004 18.0001 99.5004 18.1001 99.9004 18.1001C100.3 18.0001 100.7 17.8001 100.9 17.4001C101.2 17.0001 101.2 16.6001 101.1 16.2001C100.9 15.8001 100.6 15.4001 100.1 15.1001L97.5004 13.5001ZM99.6004 10.2001L98.3004 12.4001L100.6 13.8001C101 14.1001 101.4 14.2001 101.8 14.1001C102.2 14.0001 102.4 13.9001 102.7 13.5001C102.9 13.1001 103 12.8001 102.8 12.5001C102.7 12.2001 102.4 11.9001 101.9 11.6001L99.6004 10.2001Z" fill="#1E1F25"/>
<path d="M103.9 23.2L102.9 22.3L109.4 15L110.5 16L105.7 21.4L114.5 19.6L115.5 20.5L109 27.8L107.9 26.8L112.7 21.4L103.9 23.2Z" fill="#1E1F25"/>
<path d="M109.8 31.8004L108.9 30.6004L111.7 28.5004L112.3 29.2004C113.2 29.1004 114.2 28.9004 115.2 28.5004C116.2 28.0004 117.4 27.3004 118.8 26.2004L119.9 25.4004L123.8 30.6004L117.1 35.7004L118 36.8004L115.2 38.9004L114.3 37.7004L116 36.4004L111.5 30.5004L109.8 31.8004ZM113.3 30.6004L116.2 34.4004L121.8 30.2004L119.7 27.5004C118.4 28.5004 117.2 29.2004 116.2 29.7004C115.2 30.2004 114.2 30.5004 113.3 30.6004Z" fill="#1E1F25"/>
<path d="M121.2 46.0002L118 39.6002L126.7 35.2002L129.8 41.4002L128.5 42.0002L126 37.2002L123.8 38.3002L125.8 42.2002L124.5 42.8002L122.5 38.9002L119.7 40.3002L122.2 45.3002L121.2 46.0002Z" fill="#1E1F25"/>
<path d="M125.7 55.6998C124.5 55.0998 123.7 53.9998 123.3 52.6998C122.9 51.2998 123 49.9998 123.7 48.8998C124.4 47.6998 125.4 46.8998 126.8 46.4998C128.2 46.0998 129.5 46.1998 130.7 46.7998C131.9 47.3998 132.7 48.3998 133.1 49.7998C133.5 51.1998 133.4 52.4998 132.7 53.6998C132 54.8998 131 55.6998 129.6 56.0998C128.2 56.4998 126.9 56.2998 125.7 55.6998ZM124.9 49.5998C124.4 50.3998 124.3 51.2998 124.6 52.1998C124.9 53.0998 125.4 53.7998 126.3 54.1998C127.2 54.5998 128.1 54.6998 129.1 54.3998C130.1 54.0998 130.8 53.4998 131.3 52.6998C131.8 51.8998 131.9 50.9998 131.6 50.0998C131.3 49.1998 130.8 48.4998 129.9 48.0998C129.1 47.6998 128.1 47.5998 127.1 47.8998C126.2 48.2998 125.4 48.7998 124.9 49.5998Z" fill="#1E1F25"/>
<path d="M114.7 103.8C115.5 102.6 116.6 101.8 118 101.5C119.3 101.2 120.6 101.5 121.8 102.3C123 103.1 123.7 104.2 124 105.6C124.2 106.9 124 108.2 123.1 109.5C122.5 110.3 121.9 110.9 121.1 111.3L119.8 110.4C120.7 110 121.4 109.4 121.9 108.6C122.5 107.8 122.7 106.8 122.5 105.9C122.3 105 121.8 104.2 120.9 103.6C120 103 119.1 102.8 118.2 103C117.2 103.2 116.5 103.7 115.9 104.6C115.3 105.5 115 106.5 115.1 107.4L113.8 106.5C113.8 105.6 114.1 104.7 114.7 103.8Z" fill="#1E1F25"/>
<path d="M110.5 109.3L111.6 108.2L118.5 115.1L117.4 116.2L112 115.3L112.9 120.6L111.8 121.7L104.9 114.8L106 113.7L111.3 119L110.6 114.5L111.2 113.9L115.7 114.6L110.5 109.3Z" fill="#1E1F25"/>
<path d="M96.2997 122.4C96.5997 121.1 97.2997 120 98.4997 119.2C99.6997 118.4 101 118.2 102.3 118.5C103.6 118.8 104.7 119.6 105.5 120.8C106.3 122 106.5 123.3 106.3 124.6C106 125.9 105.3 127 104.1 127.8C102.9 128.6 101.6 128.8 100.3 128.5C98.9997 128.2 97.8997 127.5 97.0997 126.2C96.2997 125 96.0997 123.7 96.2997 122.4ZM101.9 120C101 119.8 100.1 119.9 99.2997 120.5C98.4997 121 97.9997 121.8 97.7997 122.7C97.5997 123.7 97.7997 124.6 98.3997 125.4C98.9997 126.3 99.6997 126.8 100.6 127C101.5 127.2 102.4 127.1 103.2 126.6C104 126.1 104.5 125.3 104.7 124.4C104.9 123.5 104.7 122.6 104.1 121.7C103.6 120.8 102.9 120.2 101.9 120Z" fill="#1E1F25"/>
<path d="M96.4998 130.4L97.0998 131.7L89.6998 134.8L89.0998 133.5L92.0998 132.2L88.7998 124.5L90.1998 123.9L93.4998 131.6L96.4998 130.4Z" fill="#1E1F25"/>
<path d="M82.0999 126.9L83.5999 126.5L85.8999 136L81.7999 137C80.7999 137.2 79.9999 137.2 79.2999 136.8C78.5999 136.4 78.1999 135.8 77.9999 135C77.7999 134.2 77.8999 133.4 78.3999 132.8C78.7999 132.1 79.4999 131.7 80.4999 131.5L83.0999 130.9L82.0999 126.9ZM83.9999 135L83.2999 132.2L80.7999 132.8C80.1999 132.9 79.7999 133.2 79.5999 133.5C79.3999 133.8 79.2999 134.2 79.3999 134.7C79.4999 135.2 79.6999 135.5 80.0999 135.6C80.4999 135.8 80.8999 135.8 81.4999 135.6L83.9999 135Z" fill="#1E1F25"/>
<path d="M66.7002 129.1L73.8002 128.6L74.5002 138.4L67.5002 138.9L67.4002 137.5L72.8002 137.1L72.6002 134.7L68.2002 135L68.1002 133.6L72.5002 133.3L72.3002 130.2L66.7002 130.6V129.1Z" fill="#1E1F25"/>
<path d="M64.1 137.4L64 138.8L56 138.1L56.1 136.7L59.3 137L60.1 128.6L61.6 128.7L60.8 137.1L64.1 137.4Z" fill="#1E1F25"/>
<path d="M50.4995 126.8L54.3995 127.8L51.8995 137.3L50.3995 136.9L51.2995 133.6L48.8995 133C47.7995 132.7 46.9995 132.2 46.4995 131.4C45.9995 130.7 45.8995 129.8 46.0995 128.9C46.2995 128 46.8995 127.3 47.6995 126.9C48.4995 126.6 49.4995 126.5 50.4995 126.8ZM51.6995 132.3L52.5995 128.8L50.1995 128.2C49.4995 128 48.9995 128 48.4995 128.2C48.0995 128.4 47.7995 128.8 47.5995 129.3C47.4995 129.9 47.4995 130.3 47.7995 130.7C48.0995 131.1 48.5995 131.4 49.1995 131.6L51.6995 132.3Z" fill="#1E1F25"/>
<path d="M36.3003 120.8L40.5003 123.2L35.7003 131.7L31.8003 129.5C31.0003 129.1 30.5003 128.5 30.3003 127.9C30.1003 127.3 30.1003 126.6 30.5003 126C30.7003 125.6 31.1003 125.3 31.4003 125.1C31.8003 124.9 32.2003 124.8 32.6003 124.9C32.1003 124.5 31.8003 124 31.7003 123.4C31.6003 122.8 31.7003 122.2 32.1003 121.6C32.5003 120.9 33.1003 120.4 33.9003 120.3C34.6003 120.1 35.4003 120.3 36.3003 120.8ZM35.0003 129.7L36.2003 127.5L33.9003 126.2C33.5003 125.9 33.1003 125.8 32.7003 125.9C32.3003 126 32.1003 126.2 31.9003 126.5C31.7003 126.9 31.7003 127.2 31.8003 127.5C31.9003 127.8 32.2003 128.1 32.7003 128.4L35.0003 129.7ZM36.9003 126.3L38.4003 123.6L35.8003 122.1C35.3003 121.8 34.8003 121.7 34.4003 121.8C34.0003 121.9 33.6003 122.1 33.4003 122.6C33.2003 123 33.1003 123.4 33.3003 123.8C33.5003 124.2 33.8003 124.5 34.3003 124.8L36.9003 126.3Z" fill="#1E1F25"/>
<path d="M30.2 116.8L31.2 117.6L24.9 125.1L23.7 124.1L28.3 118.6L19.5 120.6L18.5 119.7L24.8 112.2L26 113.2L21.4 118.7L30.2 116.8Z" fill="#1E1F25"/>
<path d="M24 108.5L24.9 109.6L22.2 111.8L21.6 111.1C20.7 111.2 19.7 111.5 18.8 111.9C17.8 112.4 16.6 113.2 15.2 114.3L14.1 115.2L10 110.2L16.5 104.9L15.6 103.8L18.3 101.6L19.2 102.7L17.6 104L22.3 109.8L24 108.5ZM20.6 109.8L17.6 106.1L12.2 110.5L14.4 113.2C15.7 112.2 16.8 111.4 17.8 110.8C18.7 110.2 19.7 109.9 20.6 109.8Z" fill="#1E1F25"/>
<path d="M12.1996 94.5996L15.5996 100.9L6.99961 105.6L3.59961 99.4996L4.79961 98.7996L7.39961 103.6L9.49961 102.4L7.39961 98.4996L8.59961 97.7996L10.6996 101.7L13.3996 100.2L10.9996 95.2996L12.1996 94.5996Z" fill="#1E1F25"/>
<path d="M7.39996 85.0003C8.59996 85.6003 9.49996 86.6003 9.89996 87.9003C10.3 89.3003 10.3 90.6003 9.59996 91.8003C8.99996 93.0003 7.99996 93.8003 6.59996 94.3003C5.19996 94.7003 3.89996 94.7003 2.69996 94.1003C1.49996 93.5003 0.599956 92.5003 0.199956 91.2003C-0.200044 89.9003 -0.200044 88.5003 0.499956 87.3003C1.09996 86.1003 2.09996 85.3003 3.49996 84.8003C4.89996 84.4003 6.19996 84.4003 7.39996 85.0003ZM8.29996 91.1003C8.69996 90.3003 8.79996 89.4003 8.49996 88.5003C8.19996 87.6003 7.59996 86.9003 6.79996 86.5003C5.89996 86.0003 4.99996 86.0003 3.99996 86.3003C2.99996 86.6003 2.29996 87.2003 1.89996 88.1003C1.39996 88.9003 1.39996 89.8003 1.69996 90.7003C1.99996 91.6003 2.59996 92.3003 3.49996 92.7003C4.39996 93.1003 5.29996 93.1003 6.29996 92.8003C7.29996 92.5003 7.89996 91.9003 8.29996 91.1003Z" fill="#1E1F25"/>
</g>
<defs>
<clipPath id="clip0_1314_5298">
<rect width="133.2" height="138.8" fill="white"/>
</clipPath>
</defs>
</svg>
