<svg width="44" height="44" viewBox="0 0 44 44" fill="none" xmlns="http://www.w3.org/2000/svg">
<path d="M33.6875 43.9965H10.3125C4.62619 43.9965 0 39.3704 0 33.684V19.2233C0 16.0272 1.51723 12.9619 4.05848 11.0235L15.746 2.10932C19.4283 -0.699201 24.5717 -0.699201 28.254 2.10932L31.9688 4.9401V2.74655C32.0595 0.466111 35.3163 0.46783 35.4062 2.74655V8.41077C35.4062 9.06416 35.0358 9.66099 34.4502 9.95103C33.8646 10.241 33.1653 10.1738 32.6457 9.77787L26.1699 4.84308C23.7145 2.97033 20.2854 2.97033 17.8306 4.84265L6.14307 13.7569C4.44898 15.0489 3.4375 17.0924 3.4375 19.2233V33.684C3.4375 37.4749 6.52163 40.559 10.3125 40.559H33.6875C37.4784 40.559 40.5625 37.4749 40.5625 33.684V19.2233C40.5625 17.0663 39.5624 15.0158 37.8874 13.7381C37.1326 13.1624 36.9874 12.0839 37.5631 11.3292C38.1388 10.5744 39.2174 10.4293 39.972 11.005C42.4942 12.9286 44 16.0009 44 19.2233V33.684C44 39.3704 39.3738 43.9965 33.6875 43.9965ZM18.5625 19.8481C17.376 19.8481 16.4141 20.81 16.4141 21.9965C16.5276 24.8471 20.5984 24.8449 20.7109 21.9965C20.7109 20.8099 19.749 19.8481 18.5625 19.8481ZM27.5859 21.9965C27.4724 24.847 23.4016 24.8449 23.2891 21.9965C23.4026 19.1459 27.4734 19.1481 27.5859 21.9965ZM20.7109 28.8715C20.5974 31.722 16.5266 31.7199 16.4141 28.8715C16.5276 26.0209 20.5984 26.0231 20.7109 28.8715ZM27.5859 28.8715C27.4724 31.722 23.4016 31.7199 23.2891 28.8715C23.4026 26.0209 27.4734 26.0231 27.5859 28.8715Z" fill="url(#paint0_linear_1314_79)"/>
<defs>
<linearGradient id="paint0_linear_1314_79" x1="22" y1="0.00292969" x2="22" y2="43.9965" gradientUnits="userSpaceOnUse">
<stop stop-color="#FF8B4A"/>
<stop offset="1" stop-color="#FF6534"/>
</linearGradient>
</defs>
</svg>
