<svg width="134" height="40" viewBox="0 0 134 40" fill="none" xmlns="http://www.w3.org/2000/svg">
<path d="M20.9082 0V26.6799H26.9445V2.28685L20.9082 0Z" fill="#1E1F25"/>
<path d="M42.3473 7.08923C39.8573 7.08923 37.971 8.00397 36.9524 9.41419V7.62282H31.2934V26.6799H36.9524V16.2747C36.9524 13.5686 38.386 12.349 40.461 12.349C42.2718 12.349 43.7432 13.4543 43.7432 15.8174V26.6799H49.4022V14.9788C49.4022 9.83344 46.1577 7.08923 42.3473 7.08923Z" fill="#1E1F25"/>
<path d="M67.134 7.62282V9.56664C65.889 8.00397 64.0782 7.08923 61.6259 7.08923C56.2687 7.08923 52.3452 11.5105 52.3452 16.7702C52.3452 22.03 56.2687 26.4512 61.6259 26.4512C64.0782 26.4512 65.889 25.5365 67.134 23.9738V25.727C67.134 28.4331 65.5118 29.8052 62.8709 29.8052C60.3809 29.8052 59.2869 28.738 58.5701 27.4041L53.741 30.2245C55.4765 33.3498 58.7587 34.8363 62.6823 34.8363C67.6999 34.8363 72.6421 32.1302 72.6421 25.727V7.62282H67.134ZM62.5691 21.1914C59.8905 21.1914 58.0042 19.4001 58.0042 16.7702C58.0042 14.1403 59.8905 12.349 62.5691 12.349C65.2477 12.349 67.134 14.1403 67.134 16.7702C67.134 19.4001 65.2477 21.1914 62.5691 21.1914Z" fill="#1E1F25"/>
<path d="M82.4528 11.015V7.62282H76.7938V26.6799H82.4528V18.0661C82.4528 14.2928 85.7728 13.3399 88.1118 13.7211V7.24168C85.735 7.24168 83.2073 8.46133 82.4528 11.015Z" fill="#1E1F25"/>
<path d="M103.899 7.62282V9.41419C102.654 7.96585 100.806 7.08923 98.278 7.08923C93.3358 7.08923 89.2613 11.4723 89.2613 17.1514C89.2613 22.8304 93.3358 27.2135 98.278 27.2135C100.806 27.2135 102.654 26.3369 103.899 24.8885V26.6799H109.558V7.62282H103.899ZM99.4098 21.8013C96.8066 21.8013 94.9203 20.0099 94.9203 17.1514C94.9203 14.2928 96.8066 12.5014 99.4098 12.5014C102.013 12.5014 103.899 14.2928 103.899 17.1514C103.899 20.0099 102.013 21.8013 99.4098 21.8013Z" fill="#1E1F25"/>
<path d="M127.405 0V9.41419C126.16 7.96585 124.311 7.08923 121.783 7.08923C116.841 7.08923 112.767 11.4723 112.767 17.1514C112.767 22.8304 116.841 27.2135 121.783 27.2135C124.311 27.2135 126.16 26.3369 127.405 24.8885V26.6799H133.064V0H127.405ZM122.915 21.8013C120.312 21.8013 118.426 20.0099 118.426 17.1514C118.426 14.2928 120.312 12.5014 122.915 12.5014C125.518 12.5014 127.405 14.2928 127.405 17.1514C127.405 20.0099 125.518 21.8013 122.915 21.8013Z" fill="#1E1F25"/>
<path d="M11.0993 14.4834V26.6799H17.1356V16.7702L11.0993 14.4834Z" fill="#FFC225"/>
<path d="M0.913086 4.57369V26.6799H6.94936V6.86054L0.913086 4.57369Z" fill="url(#paint0_linear_1314_5373)"/>
<path d="M81.2827 34.6838H81.8304V38.8764H81.2827V37.0484H78.8923V38.8764H78.3445V34.6838H78.8923V36.5118H81.2827V34.6838Z" fill="#1E1F25"/>
<path d="M84.9061 34.5832C85.5203 34.5832 86.0155 34.804 86.3918 35.2456C86.7736 35.6817 86.9645 36.1988 86.9645 36.7969C86.9645 36.8584 86.959 36.945 86.9479 37.0568H83.3043C83.3596 37.4817 83.5367 37.8199 83.8354 38.0714C84.1398 38.3174 84.5133 38.4404 84.9559 38.4404C85.2713 38.4404 85.5425 38.3761 85.7693 38.2475C86.0017 38.1134 86.176 37.9401 86.2922 37.7276L86.7736 38.0127C86.591 38.309 86.342 38.5438 86.0266 38.7171C85.7112 38.8904 85.3516 38.977 84.9476 38.977C84.2947 38.977 83.7635 38.7702 83.3541 38.3565C82.9446 37.9429 82.7399 37.4174 82.7399 36.7801C82.7399 36.154 82.9418 35.6314 83.3458 35.2121C83.7497 34.7929 84.2698 34.5832 84.9061 34.5832ZM84.9061 35.1199C84.4745 35.1199 84.1121 35.2512 83.8189 35.514C83.5311 35.7711 83.3596 36.1065 83.3043 36.5202H86.4001C86.3448 36.0786 86.176 35.7348 85.8938 35.4888C85.6116 35.2429 85.2824 35.1199 84.9061 35.1199Z" fill="#1E1F25"/>
<path d="M91.1597 38.3397H91.7407V40H91.1929V38.8764H87.8065V40H87.2588V38.3397H87.765C88.0472 37.9652 88.1883 37.437 88.1883 36.755V34.6838H91.1597V38.3397ZM88.429 38.3397H90.6119V35.2205H88.7361V36.755C88.7361 37.3978 88.6338 37.9261 88.429 38.3397Z" fill="#1E1F25"/>
<path d="M95.2087 36.7214C95.6625 36.8891 95.8893 37.2161 95.8893 37.7025C95.8893 38.0435 95.7759 38.3258 95.549 38.5494C95.3277 38.7674 95.0068 38.8764 94.5863 38.8764H92.5694V34.6838H94.4202C94.8242 34.6838 95.1368 34.7901 95.3581 35.0025C95.5795 35.2093 95.6901 35.4776 95.6901 35.8074C95.6901 36.2267 95.5297 36.5314 95.2087 36.7214ZM94.4202 35.2205H93.1172V36.495H94.4202C94.9016 36.495 95.1423 36.277 95.1423 35.841C95.1423 35.6453 95.0787 35.4944 94.9514 35.3882C94.8297 35.2764 94.6526 35.2205 94.4202 35.2205ZM94.5863 38.3397C94.8297 38.3397 95.0151 38.2811 95.1423 38.1637C95.2751 38.0463 95.3415 37.8814 95.3415 37.6689C95.3415 37.4733 95.2751 37.3196 95.1423 37.2078C95.0151 37.0904 94.8297 37.0317 94.5863 37.0317H93.1172V38.3397H94.5863Z" fill="#1E1F25"/>
<path d="M99.7405 34.6838H100.205V38.8764H99.6575V35.6481L97.1841 38.8764H96.7193V34.6838H97.2671V37.9121L99.7405 34.6838Z" fill="#1E1F25"/>
<path d="M106.211 38.8764H105.547L103.854 36.8556V38.8764H103.306V36.8556L101.613 38.8764H100.949L102.808 36.6963L101.032 34.6838H101.696L103.306 36.5453V34.6838H103.854V36.5453L105.464 34.6838H106.128L104.352 36.6963L106.211 38.8764Z" fill="#1E1F25"/>
<path d="M109.978 34.6838H110.442V38.8764H109.895V35.6481L107.421 38.8764H106.956V34.6838H107.504V37.9121L109.978 34.6838Z" fill="#1E1F25"/>
<path d="M115.668 34.6838V38.8764H115.12V35.5307L113.667 37.9121H113.601L112.149 35.5307V38.8764H111.601V34.6838H112.232L113.634 36.9814L115.037 34.6838H115.668Z" fill="#1E1F25"/>
<path d="M120.306 38.3481C119.886 38.7674 119.371 38.977 118.763 38.977C118.154 38.977 117.637 38.7674 117.21 38.3481C116.79 37.9233 116.58 37.4006 116.58 36.7801C116.58 36.1596 116.79 35.6397 117.21 35.2205C117.637 34.7956 118.154 34.5832 118.763 34.5832C119.371 34.5832 119.886 34.7956 120.306 35.2205C120.732 35.6397 120.945 36.1596 120.945 36.7801C120.945 37.4006 120.732 37.9233 120.306 38.3481ZM117.601 37.9624C117.916 38.2811 118.303 38.4404 118.763 38.4404C119.222 38.4404 119.609 38.2811 119.925 37.9624C120.24 37.6382 120.398 37.2441 120.398 36.7801C120.398 36.3161 120.24 35.9248 119.925 35.6062C119.609 35.282 119.222 35.1199 118.763 35.1199C118.303 35.1199 117.916 35.282 117.601 35.6062C117.285 35.9248 117.127 36.3161 117.127 36.7801C117.127 37.2441 117.285 37.6382 117.601 37.9624Z" fill="#1E1F25"/>
<path d="M123.796 38.977C123.171 38.977 122.651 38.7674 122.236 38.3481C121.821 37.9233 121.613 37.4006 121.613 36.7801C121.613 36.1596 121.821 35.6397 122.236 35.2205C122.651 34.7956 123.171 34.5832 123.796 34.5832C124.205 34.5832 124.573 34.6838 124.9 34.8851C125.226 35.0807 125.464 35.3463 125.614 35.6817L125.165 35.9416C125.055 35.6901 124.875 35.4916 124.626 35.3463C124.382 35.1953 124.106 35.1199 123.796 35.1199C123.337 35.1199 122.949 35.282 122.634 35.6062C122.319 35.9248 122.161 36.3161 122.161 36.7801C122.161 37.2441 122.319 37.6382 122.634 37.9624C122.949 38.2811 123.337 38.4404 123.796 38.4404C124.106 38.4404 124.382 38.3677 124.626 38.2224C124.869 38.0714 125.06 37.8702 125.199 37.6186L125.655 37.887C125.484 38.2224 125.232 38.4879 124.9 38.6835C124.568 38.8792 124.2 38.977 123.796 38.977Z" fill="#1E1F25"/>
<path d="M129.348 34.6838V35.2205H127.879V38.8764H127.332V35.2205H125.863V34.6838H129.348Z" fill="#1E1F25"/>
<path d="M131.701 36.277C132.088 36.277 132.415 36.4 132.68 36.646C132.951 36.8863 133.087 37.1966 133.087 37.5767C133.087 37.9568 132.951 38.2699 132.68 38.5158C132.415 38.7562 132.088 38.8764 131.701 38.8764H130.016V34.6838H130.564V36.277H131.701ZM131.701 38.3397C131.933 38.3397 132.13 38.2699 132.29 38.1301C132.456 37.9904 132.539 37.8059 132.539 37.5767C132.539 37.3475 132.456 37.163 132.29 37.0233C132.13 36.8835 131.933 36.8137 131.701 36.8137H130.564V38.3397H131.701Z" fill="#1E1F25"/>
<defs>
<linearGradient id="paint0_linear_1314_5373" x1="67" y1="0" x2="67" y2="40" gradientUnits="userSpaceOnUse">
<stop stop-color="#FF8B4A"/>
<stop offset="1" stop-color="#FF6534"/>
</linearGradient>
</defs>
</svg>
