<svg width="16" height="20" viewBox="0 0 16 20" fill="none" xmlns="http://www.w3.org/2000/svg">
<path d="M8.00001 0C3.83631 0 0.460938 3.37535 0.460938 7.53907C0.460938 8.93152 0.733487 10.3697 1.51562 11.4063L8.00001 20L14.4844 11.4063C15.1948 10.4648 15.5391 8.80032 15.5391 7.53907C15.5391 3.37535 12.1637 0 8.00001 0ZM8.00001 4.36645C9.75194 4.36645 11.1726 5.78713 11.1726 7.53905C11.1726 9.291 9.75194 10.7117 8.00001 10.7117C6.24807 10.7117 4.82741 9.291 4.82741 7.53907C4.82741 5.78713 6.24807 4.36645 8.00001 4.36645Z" fill="url(#paint0_linear_1314_5379)"/>
<defs>
<linearGradient id="paint0_linear_1314_5379" x1="8" y1="0" x2="8" y2="20" gradientUnits="userSpaceOnUse">
<stop stop-color="#FF8B4A"/>
<stop offset="1" stop-color="#FF6534"/>
</linearGradient>
</defs>
</svg>
