<svg width="44" height="44" viewBox="0 0 44 44" fill="none" xmlns="http://www.w3.org/2000/svg">
<path d="M25.3879 43.9572H10.2924C4.61717 43.9572 0 39.34 0 33.6648V10.3354C0 4.66014 4.61717 0.0429688 10.2924 0.0429688H33.6218C39.2971 0.0429688 43.9142 4.66014 43.9142 10.3354V18.9981C43.8237 21.2741 40.5732 21.2724 40.4834 18.9981V10.3354C40.4834 6.55188 37.4053 3.47377 33.6218 3.47377H10.2924C6.50891 3.47377 3.4308 6.55188 3.4308 10.3354V33.6648C3.4308 37.4483 6.50891 40.5264 10.2924 40.5264H25.3879C27.6639 40.617 27.6622 43.8674 25.3879 43.9572ZM23.26 15.1465L28.5736 9.83293C29.2435 9.16298 29.2434 8.07687 28.5735 7.40701C27.9037 6.73706 26.8174 6.73706 26.1476 7.40701L20.834 12.7206C20.5091 13.0455 20.0764 13.2212 19.6177 13.2231C19.1584 13.2222 18.7271 13.0421 18.4035 12.716L13.1396 7.41173C12.4722 6.7392 11.3861 6.73509 10.7137 7.40246C10.0413 8.06984 10.0371 9.15594 10.7044 9.82838L15.9683 15.1327C16.9391 16.1109 18.2329 16.6512 19.6112 16.6539H19.6214C20.9958 16.6538 22.2878 16.1187 23.26 15.1465ZM9.88422 28.5222L13.5688 24.7856C15.5402 22.7862 15.5346 19.5387 13.5561 17.5462L9.87993 13.844C9.21238 13.1719 8.12636 13.168 7.45401 13.8355C6.78175 14.503 6.77797 15.5891 7.44543 16.2614L11.1216 19.9636C11.7811 20.6277 11.783 21.7103 11.1258 22.3767L7.44123 26.1134C6.77609 26.7879 6.78363 27.874 7.4583 28.5393C7.79246 28.8688 8.22766 29.0332 8.66268 29.0332C9.10577 29.0332 9.5486 28.8626 9.88422 28.5222ZM38.4055 42.2186C42.1178 37.5063 44 33.9115 44 31.5343C44 26.4663 39.883 22.3432 34.8226 22.3432C29.7622 22.3432 25.6452 26.4663 25.6452 31.5343C25.6452 33.9116 27.5274 37.5063 31.2397 42.2187C32.1101 43.3236 33.4161 43.9573 34.8226 43.9573C36.2292 43.9573 37.5351 43.3235 38.4055 42.2186ZM37.0579 41.1572H37.0588H37.0579ZM40.5692 31.5343C40.5692 32.6914 39.2928 35.5481 35.7105 40.0957C35.2426 40.6744 34.4035 40.6753 33.9348 40.0957C30.3525 35.5481 29.076 32.6914 29.076 31.5343C29.076 28.358 31.6539 25.774 34.8226 25.774C37.9913 25.774 40.5692 28.358 40.5692 31.5343ZM10.3782 37.0956C8.87196 37.1047 8.08365 35.2423 9.16521 34.1672L34.1243 9.20818C34.7942 8.53823 35.8804 8.53823 36.5503 9.20818C37.2201 9.87813 37.2201 10.9642 36.5503 11.6341L11.5912 36.5932C11.2562 36.9281 10.8172 37.0956 10.3782 37.0956ZM32.6784 31.349C32.6784 32.5332 33.6384 33.4933 34.8226 33.4933C37.6669 33.3803 37.6661 29.3173 34.8226 29.2048C33.6384 29.2048 32.6784 30.1648 32.6784 31.349Z" fill="url(#paint0_linear_1314_65)"/>
<defs>
<linearGradient id="paint0_linear_1314_65" x1="22" y1="0.0429687" x2="22" y2="43.9573" gradientUnits="userSpaceOnUse">
<stop stop-color="#FF8B4A"/>
<stop offset="1" stop-color="#FF6534"/>
</linearGradient>
</defs>
</svg>
