<svg width="181" height="36" viewBox="0 0 181 36" fill="none" xmlns="http://www.w3.org/2000/svg">
<path d="M18 34C15.3478 34 12.8043 32.9464 10.9289 31.0711C9.05357 29.1957 8 26.6522 8 24V12C8 9.34784 9.05357 6.8043 10.9289 4.92893C12.8043 3.05357 15.3478 2 18 2C20.6522 2 23.1957 3.05357 25.0711 4.92893C26.9464 6.8043 28 9.34784 28 12V24C28 25.3132 27.7413 26.6136 27.2388 27.8268C26.7362 29.0401 25.9997 30.1425 25.0711 31.0711C24.1425 31.9997 23.0401 32.7362 21.8268 33.2388C20.6136 33.7413 19.3132 34 18 34ZM18 4C15.8783 4 13.8434 4.84285 12.3431 6.34315C10.8429 7.84344 10 9.87827 10 12V24C10 26.1217 10.8429 28.1566 12.3431 29.6569C13.8434 31.1571 15.8783 32 18 32C20.1217 32 22.1566 31.1571 23.6569 29.6569C25.1571 28.1566 26 26.1217 26 24V12C26 9.87827 25.1571 7.84344 23.6569 6.34315C22.1566 4.84285 20.1217 4 18 4Z" fill="#AFBBC2"/>
<path d="M18 15C17.7348 15 17.4804 14.8946 17.2929 14.7071C17.1054 14.5196 17 14.2652 17 14V10C17 9.73478 17.1054 9.48043 17.2929 9.29289C17.4804 9.10536 17.7348 9 18 9C18.2652 9 18.5196 9.10536 18.7071 9.29289C18.8946 9.48043 19 9.73478 19 10V14C19 14.2652 18.8946 14.5196 18.7071 14.7071C18.5196 14.8946 18.2652 15 18 15Z" fill="#AFBBC2"/>
<path d="M51.14 21.472V20.072C51.2613 20.1093 51.434 20.128 51.658 20.128C52.3487 20.128 52.806 19.6987 53.03 18.84C53.254 18.1027 53.3847 16.8427 53.422 15.06L53.464 11.7H59.988V21.5H58.448V13.114H54.948L54.906 15.214C54.8687 17.3327 54.64 18.9053 54.22 19.932C53.7813 21.0053 52.9553 21.542 51.742 21.542C51.4993 21.542 51.2987 21.5187 51.14 21.472ZM64.4332 21.5H63.1172V11.7H64.6572V18.896L70.0472 11.7H71.3912V21.5H69.8512V14.276L64.4332 21.5ZM79.3383 21.682C77.873 21.682 76.641 21.206 75.6423 20.254C74.6623 19.2927 74.1723 18.0747 74.1723 16.6C74.1723 15.1253 74.6623 13.912 75.6423 12.96C76.613 11.9987 77.845 11.518 79.3383 11.518C80.337 11.518 81.2236 11.7373 81.9983 12.176V13.73C81.205 13.2167 80.323 12.96 79.3523 12.96C78.3256 12.96 77.467 13.3053 76.7763 13.996C76.095 14.6773 75.7543 15.5453 75.7543 16.6C75.7543 17.6547 76.0996 18.5273 76.7903 19.218C77.481 19.8993 78.3536 20.24 79.4083 20.24C80.5283 20.24 81.4616 19.9413 82.2083 19.344V20.898C81.387 21.4207 80.4303 21.682 79.3383 21.682ZM84.0366 13.114V11.7H92.0586V13.114H88.8106V21.5H87.2706V13.114H84.0366ZM93.7675 21.5H92.1295L96.4135 11.644H97.8975L102.181 21.5H100.529L99.4655 19.064H94.8175L93.7675 21.5ZM97.1415 13.59L95.3495 17.706H98.9335L97.1415 13.59ZM105.72 21.5H104.404V11.7H105.944V18.896L111.334 11.7H112.678V21.5H111.138V14.276L105.72 21.5ZM108.534 11.126C107.796 11.126 107.199 10.916 106.742 10.496C106.284 10.076 106.051 9.516 106.042 8.816H107.33C107.33 9.16133 107.437 9.44133 107.652 9.656C107.866 9.86133 108.156 9.964 108.52 9.964C108.884 9.964 109.173 9.85667 109.388 9.642C109.602 9.42733 109.714 9.152 109.724 8.816H111.012C111.002 9.516 110.764 10.076 110.298 10.496C109.84 10.916 109.252 11.126 108.534 11.126ZM115.053 13.114V11.7H123.075V13.114H119.827V21.5H118.287V13.114H115.053ZM132.604 21.5H125.45V11.7H132.422V13.114H126.99V15.564H131.414V16.978H126.99V20.086H132.604V21.5ZM144.272 21.5H139.456V11.7H143.908C144.794 11.7 145.494 11.9147 146.008 12.344C146.53 12.7733 146.792 13.3613 146.792 14.108C146.792 14.5933 146.67 15.0133 146.428 15.368C146.185 15.7227 145.872 15.9747 145.49 16.124C146.106 16.236 146.605 16.5253 146.988 16.992C147.38 17.4587 147.576 18.042 147.576 18.742C147.576 19.5727 147.277 20.24 146.68 20.744C146.092 21.248 145.289 21.5 144.272 21.5ZM140.996 17.006V20.086H143.992C144.589 20.086 145.056 19.9507 145.392 19.68C145.737 19.4 145.91 19.0127 145.91 18.518C145.91 18.0327 145.742 17.6593 145.406 17.398C145.07 17.1367 144.598 17.006 143.992 17.006H140.996ZM140.996 13.114V15.648H143.642C144.155 15.648 144.552 15.5407 144.832 15.326C145.121 15.102 145.266 14.7847 145.266 14.374C145.266 13.9633 145.121 13.6507 144.832 13.436C144.552 13.2213 144.155 13.114 143.642 13.114H140.996ZM151.785 21.5H150.245V11.7H151.785V15.564H156.895V11.7H158.435V21.5H156.895V16.978H151.785V21.5ZM162.884 21.5H161.568V11.7H163.108V18.896L168.498 11.7H169.842V21.5H168.302V14.276L162.884 21.5ZM175.745 21.682C174.373 21.682 173.23 21.402 172.315 20.842V19.33C172.745 19.6007 173.249 19.82 173.827 19.988C174.415 20.156 174.98 20.24 175.521 20.24C176.352 20.24 177.005 20.086 177.481 19.778C177.967 19.4607 178.209 19.0407 178.209 18.518C178.209 18.0607 177.99 17.692 177.551 17.412C177.113 17.132 176.534 16.992 175.815 16.992H174.597V15.578H175.997C176.595 15.578 177.057 15.4613 177.383 15.228C177.71 14.9947 177.873 14.6727 177.873 14.262C177.873 13.8513 177.682 13.534 177.299 13.31C176.926 13.0767 176.413 12.96 175.759 12.96C174.714 12.96 173.706 13.198 172.735 13.674V12.26C173.697 11.7653 174.733 11.518 175.843 11.518C176.907 11.518 177.766 11.7607 178.419 12.246C179.073 12.7313 179.399 13.3753 179.399 14.178C179.399 14.71 179.241 15.1487 178.923 15.494C178.606 15.8393 178.256 16.0773 177.873 16.208C178.387 16.3573 178.835 16.6467 179.217 17.076C179.6 17.4867 179.791 18.0093 179.791 18.644C179.791 19.5213 179.427 20.2493 178.699 20.828C177.981 21.3973 176.996 21.682 175.745 21.682Z" fill="#AFBBC2"/>
</svg>
