<svg width="44" height="44" viewBox="0 0 44 44" fill="none" xmlns="http://www.w3.org/2000/svg">
<g clip-path="url(#clip0_1314_72)">
<path d="M35.5781 32.3984C32.498 32.3984 29.9922 29.8926 29.9922 26.8125C29.9922 23.7324 32.498 21.2266 35.5781 21.2266C38.6582 21.2266 41.1641 23.7324 41.1641 26.8125C41.1641 29.8926 38.6582 32.3984 35.5781 32.3984ZM35.5781 24.6641C34.3935 24.6641 33.4297 25.6279 33.4297 26.8125C33.4297 27.9971 34.3935 28.9609 35.5781 28.9609C36.7628 28.9609 37.7266 27.9971 37.7266 26.8125C37.7266 25.6279 36.7628 24.6641 35.5781 24.6641ZM21.4844 33.3438C18.4043 33.3438 15.8984 30.8379 15.8984 27.7578C15.8984 24.6777 18.4043 22.1719 21.4844 22.1719C24.5645 22.1719 27.0703 24.6777 27.0703 27.7578C27.0703 30.8379 24.5645 33.3438 21.4844 33.3438ZM21.4844 25.6094C20.2997 25.6094 19.3359 26.5732 19.3359 27.7578C19.3359 28.9425 20.2997 29.9062 21.4844 29.9062C22.669 29.9062 23.6328 28.9425 23.6328 27.7578C23.6328 26.5732 22.669 25.6094 21.4844 25.6094ZM17.0156 42.2812C17.0156 40.4332 18.5381 38.9297 20.4094 38.9297H23.375C24.3243 38.9297 25.0938 38.1602 25.0938 37.2109C25.0938 36.2617 24.3243 35.4922 23.375 35.4922H20.4094C16.6426 35.4922 13.5781 38.5377 13.5781 42.2812C13.5781 43.2305 14.3476 44 15.2969 44C16.2461 44 17.0156 43.2305 17.0156 42.2812ZM7.5625 33.3438C4.48241 33.3438 1.97656 30.8379 1.97656 27.7578C1.97656 24.6777 4.48241 22.1719 7.5625 22.1719C10.6426 22.1719 13.1484 24.6777 13.1484 27.7578C13.1484 30.8379 10.6426 33.3438 7.5625 33.3438ZM7.5625 25.6094C6.37785 25.6094 5.41406 26.5732 5.41406 27.7578C5.41406 28.9425 6.37785 29.9062 7.5625 29.9062C8.74715 29.9062 9.71094 28.9425 9.71094 27.7578C9.71094 26.5732 8.74715 25.6094 7.5625 25.6094ZM3.4375 42.2812C3.4375 40.4332 4.95997 38.9297 6.83126 38.9297H10.3125C11.2618 38.9297 12.0312 38.1602 12.0312 37.2109C12.0312 36.2617 11.2618 35.4922 10.3125 35.4922H6.83126C3.06445 35.4922 0 38.5377 0 42.2812C0 43.2305 0.769484 44 1.71875 44C2.66802 44 3.4375 43.2305 3.4375 42.2812ZM30.3364 19.0781C29.889 19.0781 29.4495 18.9035 29.1206 18.5747L28.9652 18.4193C28.1288 17.583 26.8574 17.3741 25.8013 17.8998C24.2309 18.6817 22.5344 19.078 20.7586 19.078C20.7568 19.078 20.7549 19.078 20.7532 19.078H9.53906C4.27917 19.0781 0 14.799 0 9.53906C0 4.27917 4.27917 0 9.53906 0H22.5156C27.7755 0 32.0547 4.27917 32.0547 9.53906V17.3594C32.0547 18.0545 31.6359 18.6813 30.9936 18.9473C30.7811 19.0353 30.5577 19.0781 30.3364 19.0781ZM9.53906 3.4375C6.1747 3.4375 3.4375 6.1747 3.4375 9.53906C3.4375 12.9034 6.1747 15.6406 9.53906 15.6406H20.7539H20.7578C21.998 15.6406 23.179 15.3655 24.2691 14.8227C25.6508 14.1347 27.196 14.0042 28.6172 14.3838V9.53906C28.6172 6.1747 25.88 3.4375 22.5156 3.4375H9.53906ZM42.2812 44C41.332 44 40.5625 43.2305 40.5625 42.2812C40.5625 39.7751 38.5108 37.7361 35.9889 37.7361H34.8236C32.3017 37.7361 30.25 39.7751 30.25 42.2812C30.25 43.2305 29.4805 44 28.5312 44C27.582 44 26.8125 43.2305 26.8125 42.2812C26.8125 37.8796 30.4062 34.2986 34.8236 34.2986H35.989C40.4063 34.2986 44.0001 37.8796 44.0001 42.2812C44 43.2305 43.2305 44 42.2812 44ZM6.875 9.53906C6.875 10.7256 7.8369 11.6875 9.02344 11.6875C10.21 11.6875 11.1719 10.7256 11.1719 9.53906C11.1719 8.35252 10.21 7.39062 9.02344 7.39062C7.8369 7.39062 6.875 8.35252 6.875 9.53906ZM13.75 9.53906C13.75 10.7256 14.7119 11.6875 15.8984 11.6875C17.085 11.6875 18.0469 10.7256 18.0469 9.53906C18.0469 8.35252 17.085 7.39062 15.8984 7.39062C14.7119 7.39062 13.75 8.35252 13.75 9.53906ZM20.625 9.53906C20.625 10.7256 21.5869 11.6875 22.7734 11.6875C23.96 11.6875 24.9219 10.7256 24.9219 9.53906C24.9219 8.35252 23.96 7.39062 22.7734 7.39062C21.5869 7.39062 20.625 8.35252 20.625 9.53906Z" fill="url(#paint0_linear_1314_72)"/>
</g>
<defs>
<linearGradient id="paint0_linear_1314_72" x1="22" y1="0" x2="22" y2="44" gradientUnits="userSpaceOnUse">
<stop stop-color="#FF8B4A"/>
<stop offset="1" stop-color="#FF6534"/>
</linearGradient>
<clipPath id="clip0_1314_72">
<rect width="44" height="44" fill="white"/>
</clipPath>
</defs>
</svg>
