<svg width="18" height="18" viewBox="0 0 18 18" fill="none" xmlns="http://www.w3.org/2000/svg">
<path d="M11.7085 12.4263L13.1085 11.0263C13.2959 10.8388 13.5342 10.7105 13.7938 10.6572C14.0534 10.6038 14.323 10.6279 14.5691 10.7263L16.2741 11.4088C16.5254 11.5093 16.7408 11.6828 16.8926 11.907C17.0443 12.1311 17.1254 12.3956 17.1254 12.6663V15.7669C17.1258 15.9512 17.0886 16.1336 17.0161 16.303C16.9436 16.4725 16.8373 16.6253 16.7037 16.7522C16.57 16.8791 16.4119 16.9774 16.239 17.0411C16.066 17.1047 15.8819 17.1325 15.6979 17.1225C3.74663 16.3788 1.33288 6.25626 0.884753 2.38001C0.863049 2.1905 0.881711 1.99855 0.939512 1.81678C0.997312 1.63501 1.09294 1.46753 1.22011 1.32537C1.34728 1.1832 1.5031 1.06957 1.67734 0.99195C1.85157 0.914327 2.04026 0.874472 2.231 0.875005H5.27663C5.5473 0.874997 5.81176 0.956087 6.0359 1.10782C6.26004 1.25955 6.43358 1.47496 6.53413 1.72626L7.216 3.43126C7.31441 3.67736 7.33843 3.94694 7.28511 4.20657C7.23178 4.4662 7.10345 4.70448 6.916 4.89188L5.516 6.29188C5.516 6.29188 6.29225 11.7494 11.7085 12.4263Z" fill="url(#paint0_linear_1314_5390)"/>
<defs>
<linearGradient id="paint0_linear_1314_5390" x1="9.00068" y1="0.875" x2="9.00068" y2="17.1245" gradientUnits="userSpaceOnUse">
<stop stop-color="#FF8B4A"/>
<stop offset="1" stop-color="#FF6534"/>
</linearGradient>
</defs>
</svg>
