<svg width="101" height="16" viewBox="0 0 101 16" fill="none" xmlns="http://www.w3.org/2000/svg">
<path d="M14.5227 5.51739L10.5555 4.94083L8.78208 1.34551C8.73365 1.24708 8.65396 1.16739 8.55552 1.11895C8.30865 0.997076 8.00865 1.09864 7.88521 1.34551L6.11177 4.94083L2.14458 5.51739C2.03521 5.53301 1.93521 5.58458 1.85865 5.6627C1.76609 5.75784 1.71508 5.88583 1.71684 6.01855C1.7186 6.15127 1.77298 6.27786 1.86802 6.37051L4.73833 9.16895L4.06021 13.1205C4.04431 13.2124 4.05448 13.307 4.08957 13.3934C4.12466 13.4798 4.18327 13.5547 4.25875 13.6095C4.33423 13.6644 4.42356 13.6969 4.51662 13.7036C4.60967 13.7102 4.70271 13.6906 4.78521 13.6471L8.33365 11.7815L11.8821 13.6471C11.979 13.6986 12.0915 13.7158 12.1993 13.6971C12.4711 13.6502 12.654 13.3924 12.6071 13.1205L11.929 9.16895L14.7993 6.37051C14.8774 6.29395 14.929 6.19395 14.9446 6.08458C14.9868 5.81114 14.7961 5.55801 14.5227 5.51739Z" fill="#FFC225"/>
<path d="M35.5227 5.51739L31.5555 4.94083L29.7821 1.34551C29.7336 1.24708 29.654 1.16739 29.5555 1.11895C29.3086 0.997076 29.0086 1.09864 28.8852 1.34551L27.1118 4.94083L23.1446 5.51739C23.0352 5.53301 22.9352 5.58458 22.8586 5.6627C22.7661 5.75784 22.7151 5.88583 22.7168 6.01855C22.7186 6.15127 22.773 6.27786 22.868 6.37051L25.7383 9.16895L25.0602 13.1205C25.0443 13.2124 25.0545 13.307 25.0896 13.3934C25.1247 13.4798 25.1833 13.5547 25.2588 13.6095C25.3342 13.6644 25.4236 13.6969 25.5166 13.7036C25.6097 13.7102 25.7027 13.6906 25.7852 13.6471L29.3336 11.7815L32.8821 13.6471C32.979 13.6986 33.0915 13.7158 33.1993 13.6971C33.4711 13.6502 33.654 13.3924 33.6071 13.1205L32.929 9.16895L35.7993 6.37051C35.8774 6.29395 35.929 6.19395 35.9446 6.08458C35.9868 5.81114 35.7961 5.55801 35.5227 5.51739Z" fill="#FFC225"/>
<path d="M56.5227 5.51739L52.5555 4.94083L50.7821 1.34551C50.7336 1.24708 50.654 1.16739 50.5555 1.11895C50.3086 0.997076 50.0086 1.09864 49.8852 1.34551L48.1118 4.94083L44.1446 5.51739C44.0352 5.53301 43.9352 5.58458 43.8586 5.6627C43.7661 5.75784 43.7151 5.88583 43.7168 6.01855C43.7186 6.15127 43.773 6.27786 43.868 6.37051L46.7383 9.16895L46.0602 13.1205C46.0443 13.2124 46.0545 13.307 46.0896 13.3934C46.1247 13.4798 46.1833 13.5547 46.2588 13.6095C46.3342 13.6644 46.4236 13.6969 46.5166 13.7036C46.6097 13.7102 46.7027 13.6906 46.7852 13.6471L50.3336 11.7815L53.8821 13.6471C53.979 13.6986 54.0915 13.7158 54.1993 13.6971C54.4711 13.6502 54.654 13.3924 54.6071 13.1205L53.929 9.16895L56.7993 6.37051C56.8774 6.29395 56.929 6.19395 56.9446 6.08458C56.9868 5.81114 56.7961 5.55801 56.5227 5.51739Z" fill="#FFC225"/>
<path d="M77.5227 5.51739L73.5555 4.94083L71.7821 1.34551C71.7336 1.24708 71.654 1.16739 71.5555 1.11895C71.3086 0.997076 71.0086 1.09864 70.8852 1.34551L69.1118 4.94083L65.1446 5.51739C65.0352 5.53301 64.9352 5.58458 64.8586 5.6627C64.7661 5.75784 64.7151 5.88583 64.7168 6.01855C64.7186 6.15127 64.773 6.27786 64.868 6.37051L67.7383 9.16895L67.0602 13.1205C67.0443 13.2124 67.0545 13.307 67.0896 13.3934C67.1247 13.4798 67.1833 13.5547 67.2588 13.6095C67.3342 13.6644 67.4236 13.6969 67.5166 13.7036C67.6097 13.7102 67.7027 13.6906 67.7852 13.6471L71.3336 11.7815L74.8821 13.6471C74.979 13.6986 75.0915 13.7158 75.1993 13.6971C75.4711 13.6502 75.654 13.3924 75.6071 13.1205L74.929 9.16895L77.7993 6.37051C77.8774 6.29395 77.929 6.19395 77.9446 6.08458C77.9868 5.81114 77.7961 5.55801 77.5227 5.51739Z" fill="#FFC225"/>
<path d="M98.5227 5.51739L94.5555 4.94083L92.7821 1.34551C92.7336 1.24708 92.654 1.16739 92.5555 1.11895C92.3086 0.997076 92.0086 1.09864 91.8852 1.34551L90.1118 4.94083L86.1446 5.51739C86.0352 5.53301 85.9352 5.58458 85.8586 5.6627C85.7661 5.75784 85.7151 5.88583 85.7168 6.01855C85.7186 6.15127 85.773 6.27786 85.868 6.37051L88.7383 9.16895L88.0602 13.1205C88.0443 13.2124 88.0545 13.307 88.0896 13.3934C88.1247 13.4798 88.1833 13.5547 88.2588 13.6095C88.3342 13.6644 88.4236 13.6969 88.5166 13.7036C88.6097 13.7102 88.7027 13.6906 88.7852 13.6471L92.3336 11.7815L95.8821 13.6471C95.979 13.6986 96.0915 13.7158 96.1993 13.6971C96.4711 13.6502 96.654 13.3924 96.6071 13.1205L95.929 9.16895L98.7993 6.37051C98.8774 6.29395 98.929 6.19395 98.9446 6.08458C98.9868 5.81114 98.7961 5.55801 98.5227 5.51739Z" fill="#EAEAEA"/>
</svg>
